<?xml version="1.0" encoding="utf-8"?>
<!--
  - Copyright 2000-2025 JetBrains s.r.o. and contributors. Use of this source code is governed by the Apache 2.0 license.
  -->

<!-- Generator: Adobe Illustrator 21.1.0, SVG Export Plug-In . SVG Version: 6.00 Build 0)  -->
<svg version="1.1" id="Ebene_1" xmlns="http://www.w3.org/2000/svg" xmlns:xlink="http://www.w3.org/1999/xlink" x="0px" y="0px"
	 viewBox="0 0 300 270.1" style="enable-background:new 0 0 300 270.1;" xml:space="preserve">
<style type="text/css">
	.st0{fill:#6DB33F;}
</style>
<g transform="translate(0.000000,200.000000) scale(0.100000,-0.100000)">
	<path class="st0" d="M811.5,1979.3c-102-36-156-99-280.5-316.5c-9-16.5-31.5-55.5-48-85.5c-18-31.5-46.5-81-63-109.5
		c-40.5-72-69-118.5-195-337.5c-60-103.5-121.5-211.5-138-240s-34.5-58.5-40.5-67.5C24,786.8,0,698.3,0,650.3s24-136.5,46.5-172.5
		c6-7.5,24-39,40.5-67.5s78-136.5,138-240c126-219,154.5-265.5,195-337.5c16.5-28.5,45-78,63-108c16.5-31.5,39-70.5,48-87
		c93-163.5,124.5-210,175.5-252c31.5-28.5,84-58.5,117-67.5c81-25.5,1272-25.5,1353,0c96,28.5,168,103.5,271.5,285
		c51,91.5,111,193.5,130.5,228s48,82.5,61.5,106.5c13.5,25.5,46.5,81,73.5,124.5c25.5,43.5,46.5,82.5,46.5,85.5s33,60,73.5,126
		C2946,456.8,3000,578.3,3000,650.3s-54,193.5-166.5,376.5c-40.5,66-73.5,123-73.5,126s-21,42-46.5,85.5
		c-27,43.5-60,100.5-73.5,124.5c-13.5,25.5-42,72-61.5,106.5s-79.5,136.5-130.5,228c-103.5,181.5-175.5,256.5-271.5,285
		C2094,2007.8,882,2004.8,811.5,1979.3z M1585.5,1517.3c34.5-31.5,34.5-33,34.5-447V654.8l-37.5-34.5c-52.5-49.5-135-49.5-174,0
		c-25.5,34.5-28.5,69-28.5,448.5c0,402,0,412.5,33,447C1455,1560.8,1537.5,1562.3,1585.5,1517.3z M1122,1370.3
		c40.5-25.5,48-39,48-85.5c0-49.5-12-69-87-142.5c-133.5-130.5-187.5-256.5-187.5-439.5c0-177,43.5-288,165-414
		c127.5-133.5,255-186,447-184.5c121.5,1.5,147,7.5,238.5,51c216,105,351,316.5,354,553.5c0,147-72,312-184.5,424.5
		c-108,106.5-123,135-94.5,189c12,22.5,39,51,58.5,61.5c34.5,18,45,16.5,105-18c115.5-67.5,235.5-229.5,295.5-402
		c51-138,51-385.5,1.5-522C2176.5,152.3,1968-33.7,1665-108.7c-427.5-105-889.5,199.5-982.5,646.5c-42,198-19.5,340.5,85.5,556.5
		c48,97.5,160.5,226.5,240,276C1068,1406.3,1062,1406.3,1122,1370.3z"/>
</g>
</svg>
