<svg width="16" height="16" viewBox="0 0 16 16" fill="none" xmlns="http://www.w3.org/2000/svg">
<path fill-rule="evenodd" clip-rule="evenodd" d="M7 1L3 5H7V1Z" fill="#9AA7B0" fill-opacity="0.8"/>
<path fill-rule="evenodd" clip-rule="evenodd" d="M8 1V6H3V15H8.00098V8.00098H12C12.345 8.00098 12.6801 8.04523 13 8.12835V1H8Z" fill="#9AA7B0" fill-opacity="0.8"/>
<g clip-path="url(#clip0_1_12)">
<path d="M12 8.80078H8.80078V15.1992H12C13.7598 15.1992 15.1992 13.7598 15.1992 12C15.1992 10.2402 13.7598 8.80078 12 8.80078Z" fill="url(#paint0_linear_1_12)"/>
<path d="M8.80078 15.1992L12.0527 12L8.80078 8.80078V15.1992Z" fill="url(#paint1_linear_1_12)"/>
</g>
<defs>
<linearGradient id="paint0_linear_1_12" x1="8.31613" y1="9.25603" x2="13.8071" y2="14.747" gradientUnits="userSpaceOnUse">
<stop offset="0.000533277" stop-color="#087CFA"/>
<stop offset="1" stop-color="#07C3F2"/>
</linearGradient>
<linearGradient id="paint1_linear_1_12" x1="12.2726" y1="11.9999" x2="7.57815" y2="11.9999" gradientUnits="userSpaceOnUse">
<stop offset="0.3009" stop-color="#3BEA62"/>
<stop offset="0.4807" stop-color="#25D99F"/>
<stop offset="0.6348" stop-color="#15CDCC"/>
<stop offset="0.7536" stop-color="#0BC6E8"/>
<stop offset="0.8226" stop-color="#07C3F2"/>
</linearGradient>
<clipPath id="clip0_1_12">
<rect width="8" height="8" fill="white" transform="translate(8 8)"/>
</clipPath>
</defs>
</svg>
