<svg fill="none" height="56" viewBox="0 0 48 56" width="48" xmlns="http://www.w3.org/2000/svg"
     xmlns:xlink="http://www.w3.org/1999/xlink">
    <linearGradient id="compose_hot_reload_gradient" gradientUnits="userSpaceOnUse" x1="33" x2="20.984" y1="5.2998" y2="35.7935">
        <stop offset="0" stop-color="#33c3ff"/>
        <stop offset=".487417" stop-color="#5383ec"/>
        <stop offset="1" stop-color="#6b57ff"/>
    </linearGradient>
    <path d="m48 14.167v27.7344l-24 13.8681-24-13.8681v-27.7344l24-13.867195zm-25.1357-1.9541c-.0059.0178-.7665 2.313-8.1817 9.7783-3.7365 3.7621-3.6984 8.8397-3.6982 8.8565 0 5.2362 3.0569 9.7529 7.4707 11.8437-.1128-.8436-.1729-1.7274-.1729-2.6377 0-5.8972 2.5146-10.6779 5.6162-10.6787 3.102 0 5.6172 4.7811 5.6172 10.6787 0 .9399-.0646 1.8514-.1845 2.7197 4.5079-2.0532 7.6445-6.6205 7.6445-11.9257-.0002-.0057-.0141-.4392-.0518-.753-.5569-4.6395-2.8972-7.7341-4.4736-9.3095-.5358 1.1988-1.3555 3.2785-2.5938 4.6611-.4803-9.0792-6.9564-13.2107-6.9921-13.2334z"
          fill="url(#compose_hot_reload_gradient)"/>
</svg>