<svg width="50" height="56" viewBox="0 0 50 56" fill="none" xmlns="http://www.w3.org/2000/svg">
<path d="M49 14V42L25 56L1 42V14L25 0L49 14Z" fill="#6075F2"/>
<path d="M34.5 22.5V33.5L25 39V56L49 42V13.9998L34.5 22.5Z" fill="#6B57FF"/>
<path d="M25 39L15.5 33.5V22.5L1 14V42L25 56V39Z" fill="url(#paint0_radial_1333_5021)"/>
<path d="M15.5 22.5L25 17L34.5 22.5L49 14L25 0L1 14L15.5 22.5Z" fill="url(#paint1_linear_1333_5021)"/>
<path d="M25 17L34.5 22.5V33.5L25 39L15.5001 33.5L15.5 22.5L25 17Z" fill="black"/>
<defs>
<radialGradient id="paint0_radial_1333_5021" cx="0" cy="0" r="1" gradientUnits="userSpaceOnUse" gradientTransform="translate(16.1306 14.4412) scale(42.1315 42.1318)">
<stop stop-color="#5383EC"/>
<stop offset="0.86699" stop-color="#7F52FF"/>
</radialGradient>
<linearGradient id="paint1_linear_1333_5021" x1="37.1719" y1="0.37664" x2="10.9733" y2="30.0353" gradientUnits="userSpaceOnUse">
<stop stop-color="#33C3FF"/>
<stop offset="0.87843" stop-color="#5383EC"/>
</linearGradient>
</defs>
</svg>
