<svg width="16" height="16" viewBox="0 0 16 16" fill="none" xmlns="http://www.w3.org/2000/svg">
    <path d="M 8 1.601562 L 1.601562 1.601562 L 1.601562 14.398438 L 8 14.398438 C 11.519531 14.398438 14.398438 11.519531 14.398438 8 C 14.398438 4.480469 11.519531 1.601562 8 1.601562 Z M 8 1.601562 "
          fill="url(#paint0_linear)"/>
    <path fill="url(#paint1_linear)" d="M 1.601562 14.398438 L 8.105469 8 L 1.601562 1.601562 Z M 1.601562 14.398438 "/>
    <path fill-rule="evenodd" clip-rule="evenodd" d="M10.8536 10.1464C11.0488 10.3417 11.0488 10.6583 10.8536 10.8536L8.70711 13L10.8536 15.1464C11.0488 15.3417 11.0488 15.6583 10.8536 15.8536C10.6583 16.0488 10.3417 16.0488 10.1464 15.8536L7.64645 13.3536C7.45118 13.1583 7.45118 12.8417 7.64645 12.6464L10.1464 10.1464C10.3417 9.95118 10.6583 9.95118 10.8536 10.1464ZM12.1464 10.1464C12.3417 9.95118 12.6583 9.95118 12.8536 10.1464L15.3536 12.6464C15.5488 12.8417 15.5488 13.1583 15.3536 13.3536L12.8536 15.8536C12.6583 16.0488 12.3417 16.0488 12.1464 15.8536C11.9512 15.6583 11.9512 15.3417 12.1464 15.1464L14.2929 13L12.1464 10.8536C11.9512 10.6583 11.9512 10.3417 12.1464 10.1464Z" fill="#CED0D6"/>
    <defs>
        <linearGradient id="paint0_linear" x1="0.632256" y1="2.512064" x2="11.61412" y2="13.49392"
                        gradientUnits="userSpaceOnUse">
            <stop offset="0.000533277" stop-color="#087CFA"/>
            <stop offset="1" stop-color="#07C3F2"/>
        </linearGradient>
        <linearGradient id="paint1_linear" x1="8.54512" y1="7.99984" x2="-0.843692" y2="7.99984"
                        gradientUnits="userSpaceOnUse">
            <stop offset="0.3009" stop-color="#3BEA62"/>
            <stop offset="0.4807" stop-color="#25D99F"/>
            <stop offset="0.6348" stop-color="#15CDCC"/>
            <stop offset="0.7536" stop-color="#0BC6E8"/>
            <stop offset="0.8226" stop-color="#07C3F2"/>
        </linearGradient>
    </defs>
</svg>
